<svg
  viewBox="0 0 1041 171"
  fill="none"
  xmlns="http://www.w3.org/2000/svg"
>
  <path
    d="M1040.68 52.1809C1017.04 51.4279 994.075 50.9762 971.788 50.8256V168.741H915.315V50.8256C892.876 50.9762 869.986 51.4279 846.644 52.1809V4.7437H1040.68V52.1809Z"
    fill="white"
    fill-opacity="0.05"
  />
  <path
    d="M772.569 4.51793H828.59V94.4228C828.289 116.56 820.683 134.857 805.775 149.314C791.016 163.771 766.093 171 731.005 171C695.464 171 671.143 164.148 658.042 150.444C644.94 136.589 638.54 118.443 638.841 96.004V4.51793H694.862V92.3897C694.862 99.0159 695.314 104.437 696.217 108.654C697.271 112.72 700.434 116.56 705.705 120.174C711.126 123.789 719.785 125.596 731.682 125.596C744.633 125.596 754.121 123.789 760.145 120.174C766.168 116.41 769.707 112.268 770.761 107.75C771.966 103.233 772.569 97.4347 772.569 90.3567V4.51793Z"
    fill="white"
    fill-opacity="0.05"
  />
  <path
    d="M520.089 171C485.603 171 460.228 163.545 443.964 148.637C427.699 133.577 419.567 112.494 419.567 85.387C419.567 58.5812 427.624 37.6486 443.738 22.5892C460.002 7.52973 485.452 0 520.089 0C554.876 0 580.327 7.52973 596.44 22.5892C612.705 37.6486 620.837 58.5812 620.837 85.387C620.837 112.645 612.78 133.728 596.666 148.637C580.553 163.545 555.027 171 520.089 171ZM520.089 124.918C536.805 124.918 548.853 121.756 556.232 115.431C563.611 108.955 567.3 98.9405 567.3 85.387C567.3 72.1347 563.611 62.2708 556.232 55.7952C548.853 49.3197 536.805 46.0819 520.089 46.0819C503.524 46.0819 491.551 49.3197 484.172 55.7952C476.793 62.2708 473.104 72.1347 473.104 85.387C473.104 98.7899 476.793 108.729 484.172 115.205C491.551 121.68 503.524 124.918 520.089 124.918Z"
    fill="white"
    fill-opacity="0.05"
  />
  <path
    d="M350.093 87.1941C384.429 87.1941 401.596 98.1122 401.596 119.948C401.596 130.189 399.262 138.923 394.594 146.152C389.925 153.23 381.567 158.802 369.52 162.868C357.472 166.783 340.756 168.741 319.372 168.741H217.721C218.925 139.526 219.528 112.193 219.528 86.7423C219.528 61.2919 218.925 33.959 217.721 4.7437H270.805V4.96959H318.92C337.594 4.96959 352.277 6.55082 362.969 9.7133C373.812 12.7252 381.417 17.1677 385.784 23.0409C390.302 28.9141 392.561 36.3685 392.561 45.4042C392.561 54.5904 389.323 62.7978 382.847 70.0263C376.522 77.1043 365.604 82.8269 350.093 87.1941ZM270.805 46.0818V67.0897H314.176C323.513 67.0897 329.989 66.2615 333.603 64.6049C337.368 62.9484 339.25 59.9365 339.25 55.5693C339.25 52.1056 337.293 49.6961 333.377 48.3407C329.612 46.8348 323.212 46.0818 314.176 46.0818H270.805ZM314.176 127.403C322.007 127.403 327.956 127.102 332.022 126.499C336.238 125.746 339.25 124.542 341.057 122.885C342.864 121.078 343.768 118.668 343.768 115.656C343.768 111.741 341.584 108.955 337.217 107.298C333.001 105.491 325.32 104.588 314.176 104.588H270.805V127.403H314.176Z"
    fill="white"
    fill-opacity="0.05"
  />
  <path
    d="M151.573 168.741C148.712 160.157 144.872 149.39 140.053 136.438H67.9934L56.6988 168.741H0L63.2496 4.7437H146.378L210.079 168.741H151.573ZM127.177 101.199C121.454 85.387 115.581 69.5746 109.557 53.7622L104.136 39.0792C98.8652 52.7833 91.1096 73.49 80.8692 101.199H127.177Z"
    fill="white"
    fill-opacity="0.05"
  />
</svg>
