<svg viewBox="0 0 1437 171" fill="none" xmlns="http://www.w3.org/2000/svg">
  <path
    d="M99.3923 171C65.358 171 40.284 163.771 24.1704 149.314C8.0568 134.857 0 114.226 0 87.4201C0 60.4637 8.0568 39.1546 24.1704 23.4927C40.284 7.83091 65.358 0 99.3923 0C146.98 0 178.831 16.3395 194.945 49.0185C181.391 53.6869 165.503 60.6896 147.281 70.0264C142.914 61.5931 135.987 55.3435 126.499 51.2774C117.162 47.2114 107.6 45.1783 97.8111 45.1783C83.354 45.1783 72.5865 49.0185 65.5086 56.6988C58.4306 64.2285 54.8917 73.5654 54.8917 84.7094C54.8917 96.7569 58.6565 106.621 66.1863 114.301C73.8666 121.831 85.5377 125.596 101.199 125.596C113.699 125.596 123.638 123.563 131.017 119.497C138.396 115.28 143.818 108.654 147.281 99.6182C159.63 106.244 175.443 113.699 194.719 121.982C187.189 140.203 174.614 152.929 156.995 160.157C139.375 167.386 120.174 171 99.3923 171Z"
    fill="white"
    fill-opacity="0.14"
  />
  <path
    d="M306.78 171C272.294 171 246.919 163.546 230.655 148.637C214.391 133.577 206.259 112.494 206.259 85.3871C206.259 58.5812 214.315 37.6486 230.429 22.5892C246.693 7.52972 272.144 0 306.78 0C341.568 0 367.018 7.52972 383.132 22.5892C399.396 37.6486 407.528 58.5812 407.528 85.3871C407.528 112.645 399.471 133.728 383.358 148.637C367.244 163.546 341.718 171 306.78 171ZM306.78 124.918C323.496 124.918 335.544 121.756 342.923 115.431C350.302 108.955 353.992 98.9406 353.992 85.3871C353.992 72.1347 350.302 62.2708 342.923 55.7952C335.544 49.3197 323.496 46.0819 306.78 46.0819C290.215 46.0819 278.243 49.3197 270.864 55.7952C263.484 62.2708 259.795 72.1347 259.795 85.3871C259.795 98.79 263.484 108.729 270.864 115.205C278.243 121.68 290.215 124.918 306.78 124.918Z"
    fill="white"
    fill-opacity="0.14"
  />
  <path
    d="M615.055 4.96962C614.001 30.4201 613.474 57.6777 613.474 86.7424C613.474 115.958 614.001 143.291 615.055 168.741H534.186L479.52 45.4042L483.586 168.741H425.532C426.737 139.526 427.339 112.193 427.339 86.7424C427.339 61.4425 426.737 34.1849 425.532 4.96962H508.66L563.552 131.695L559.712 4.96962H615.055Z"
    fill="white"
    fill-opacity="0.14"
  />
  <path
    d="M827.155 52.181C803.512 51.428 780.546 50.9762 758.258 50.8256V168.741H701.785V50.8256C679.347 50.9762 656.457 51.428 633.114 52.181V4.74373H827.155V52.181Z"
    fill="white"
    fill-opacity="0.14"
  />
  <path
    d="M969.778 168.741C966.916 160.157 963.076 149.39 958.257 136.439H886.198L874.903 168.741H818.204L881.454 4.74373H964.582L1028.28 168.741H969.778ZM945.381 101.199C939.659 85.3871 933.786 69.5746 927.762 53.7622L922.34 39.0793C917.07 52.7834 909.314 73.4901 899.074 101.199H945.381Z"
    fill="white"
    fill-opacity="0.14"
  />
  <path
    d="M1128.48 171C1094.44 171 1069.37 163.771 1053.26 149.314C1037.14 134.857 1029.09 114.226 1029.09 87.4201C1029.09 60.4637 1037.14 39.1546 1053.26 23.4927C1069.37 7.83091 1094.44 0 1128.48 0C1176.07 0 1207.92 16.3395 1224.03 49.0185C1210.48 53.6869 1194.59 60.6896 1176.37 70.0264C1172 61.5931 1165.07 55.3435 1155.59 51.2774C1146.25 47.2114 1136.69 45.1783 1126.9 45.1783C1112.44 45.1783 1101.67 49.0185 1094.6 56.6988C1087.52 64.2285 1083.98 73.5654 1083.98 84.7094C1083.98 96.7569 1087.74 106.621 1095.27 114.301C1102.95 121.831 1114.62 125.596 1130.29 125.596C1142.79 125.596 1152.72 123.563 1160.1 119.497C1167.48 115.28 1172.9 108.654 1176.37 99.6182C1188.72 106.244 1204.53 113.699 1223.81 121.982C1216.28 140.203 1203.7 152.929 1186.08 160.157C1168.46 167.386 1149.26 171 1128.48 171Z"
    fill="white"
    fill-opacity="0.14"
  />
  <path
    d="M1436.22 52.181C1412.58 51.428 1389.62 50.9762 1367.33 50.8256V168.741H1310.85V50.8256C1288.42 50.9762 1265.53 51.428 1242.18 52.181V4.74373H1436.22V52.181Z"
    fill="white"
    fill-opacity="0.14"
  />
</svg>
