<svg
  viewBox="0 0 1767 171"
  fill="none"
  xmlns="http://www.w3.org/2000/svg"
>
  <path
    d="M1665.44 171C1630.95 171 1605.57 163.546 1589.31 148.637C1573.05 133.577 1564.91 112.494 1564.91 85.3871C1564.91 58.5812 1572.97 37.6486 1589.08 22.5892C1605.35 7.52973 1630.8 0 1665.44 0C1700.22 0 1725.67 7.52973 1741.79 22.5892C1758.05 37.6486 1766.18 58.5812 1766.18 85.3871C1766.18 112.645 1758.13 133.728 1742.01 148.637C1725.9 163.546 1700.37 171 1665.44 171ZM1665.44 124.918C1682.15 124.918 1694.2 121.756 1701.58 115.431C1708.96 108.955 1712.65 98.9406 1712.65 85.3871C1712.65 72.1347 1708.96 62.2708 1701.58 55.7953C1694.2 49.3197 1682.15 46.0819 1665.44 46.0819C1648.87 46.0819 1636.9 49.3197 1629.52 55.7953C1622.14 62.2708 1618.45 72.1347 1618.45 85.3871C1618.45 98.79 1622.14 108.729 1629.52 115.205C1636.9 121.68 1648.87 124.918 1665.44 124.918Z"
    fill="white"
    fill-opacity="0.14"
  />
  <path
    d="M1546.83 49.6959C1528.91 48.7923 1515.66 48.2653 1507.07 48.1147V125.37C1515.81 125.219 1529.06 124.692 1546.83 123.788V168.741H1415.59V123.788C1432.91 124.692 1446.08 125.219 1455.12 125.37V48.1147C1446.08 48.2653 1432.91 48.7923 1415.59 49.6959V4.74353H1546.83V49.6959Z"
    fill="white"
    fill-opacity="0.14"
  />
  <path
    d="M1289.16 123.111C1332.83 122.809 1368.98 122.056 1397.59 120.852C1395.63 128.532 1394.43 135.911 1393.97 142.989C1393.52 150.067 1393.3 158.651 1393.3 168.741H1234.04C1235.25 139.525 1235.85 112.193 1235.85 86.7421C1235.85 61.2917 1235.25 33.9588 1234.04 4.74353H1289.16V123.111Z"
    fill="white"
    fill-opacity="0.14"
  />
  <path
    d="M1115.27 171C1080.78 171 1055.4 163.546 1039.14 148.637C1022.88 133.577 1014.74 112.494 1014.74 85.3871C1014.74 58.5812 1022.8 37.6486 1038.91 22.5892C1055.18 7.52973 1080.63 0 1115.27 0C1150.05 0 1175.5 7.52973 1191.62 22.5892C1207.88 37.6486 1216.01 58.5812 1216.01 85.3871C1216.01 112.645 1207.96 133.728 1191.84 148.637C1175.73 163.546 1150.2 171 1115.27 171ZM1115.27 124.918C1131.98 124.918 1144.03 121.756 1151.41 115.431C1158.79 108.955 1162.48 98.9406 1162.48 85.3871C1162.48 72.1347 1158.79 62.2708 1151.41 55.7953C1144.03 49.3197 1131.98 46.0819 1115.27 46.0819C1098.7 46.0819 1086.73 49.3197 1079.35 55.7953C1071.97 62.2708 1068.28 72.1347 1068.28 85.3871C1068.28 98.79 1071.97 108.729 1079.35 115.205C1086.73 121.68 1098.7 124.918 1115.27 124.918Z"
    fill="white"
    fill-opacity="0.14"
  />
  <path
    d="M996.601 46.9852H873.716V70.7038C881.396 70.8544 892.917 70.9297 908.277 70.9297C934.782 70.9297 961.739 70.4779 989.147 69.5744V113.849C961.739 112.795 932.824 112.268 902.404 112.268C889.754 112.268 880.191 112.343 873.716 112.494V168.741H820.405C821.61 139.525 822.212 112.193 822.212 86.7421C822.212 61.2917 821.61 33.9588 820.405 4.74353H996.601V46.9852Z"
    fill="white"
    fill-opacity="0.14"
  />
  <path
    d="M802.229 52.1807C778.586 51.4277 755.62 50.976 733.332 50.8254V168.741H676.859V50.8254C654.421 50.976 631.53 51.4277 608.188 52.1807V4.74353H802.229V52.1807Z"
    fill="white"
    fill-opacity="0.14"
  />
  <path
    d="M601.406 59.4092C601.406 72.5109 598.169 83.5796 591.693 92.6153C585.368 101.651 574.45 108.202 558.939 112.268C560.746 114.677 562.026 116.56 562.779 117.915L599.373 168.741H537.931C531.305 156.392 520.838 138.923 506.532 116.334H473.326V168.741H420.015C421.22 139.525 421.822 112.193 421.822 86.7421C421.822 61.2917 421.22 33.9588 420.015 4.74353H473.326V4.96941H519.634C550.054 4.96941 571.288 9.86373 583.335 19.6524C595.383 29.441 601.406 42.6933 601.406 59.4092ZM473.326 48.3406V74.0922H503.821C516.622 74.0922 526.26 73.7157 532.735 72.9627C539.361 72.0592 543.955 70.7038 546.515 68.8967C549.075 67.0895 550.355 64.4542 550.355 60.9905C550.355 57.6774 549.15 55.1173 546.741 53.3102C544.331 51.503 539.813 50.223 533.187 49.47C526.561 48.717 516.772 48.3406 503.821 48.3406H473.326Z"
    fill="white"
    fill-opacity="0.14"
  />
  <path
    d="M301.26 171C266.774 171 241.398 163.546 225.134 148.637C208.87 133.577 200.738 112.494 200.738 85.3871C200.738 58.5812 208.795 37.6486 224.908 22.5892C241.172 7.52973 266.623 0 301.26 0C336.047 0 361.498 7.52973 377.612 22.5892C393.876 37.6486 402.008 58.5812 402.008 85.3871C402.008 112.645 393.951 133.728 377.838 148.637C361.724 163.546 336.198 171 301.26 171ZM301.26 124.918C317.976 124.918 330.024 121.756 337.403 115.431C344.782 108.955 348.471 98.9406 348.471 85.3871C348.471 72.1347 344.782 62.2708 337.403 55.7953C330.024 49.3197 317.976 46.0819 301.26 46.0819C284.694 46.0819 272.722 49.3197 265.343 55.7953C257.964 62.2708 254.274 72.1347 254.274 85.3871C254.274 98.79 257.964 108.729 265.343 115.205C272.722 121.68 284.694 124.918 301.26 124.918Z"
    fill="white"
    fill-opacity="0.14"
  />
  <path
    d="M102.555 4.96941C132.524 4.96941 153.381 10.3155 165.127 21.0077C176.874 31.5493 182.747 46.4581 182.747 65.7342C182.747 78.9865 180.413 90.2811 175.744 99.6179C171.076 108.804 162.868 116.033 151.122 121.303C139.376 126.424 123.187 128.984 102.555 128.984H55.5695V168.741H0C1.20476 139.525 1.80714 112.193 1.80714 86.7421C1.80714 61.2917 1.20476 33.9588 0 4.74353H55.5695V4.96941H102.555ZM86.7427 85.3868C99.2421 85.3868 108.579 84.935 114.753 84.0314C121.078 82.9773 125.446 81.1701 127.855 78.61C130.415 76.0499 131.695 72.2851 131.695 67.3154C131.695 62.3458 130.49 58.6563 128.081 56.2468C125.822 53.6867 121.53 51.9548 115.205 51.0513C109.031 50.1477 99.5432 49.6959 86.7427 49.6959H55.5695V85.3868H86.7427Z"
    fill="white"
    fill-opacity="0.14"
  />
</svg>
